<svg width="16" height="20" viewBox="0 0 16 20" fill="none" xmlns="http://www.w3.org/2000/svg">
<path d="M6.64773 2.72727V10H5.79545L1.83239 4.28977H1.76136V10H0.880682V2.72727H1.73295L5.71023 8.4517H5.78125V2.72727H6.64773Z" fill="black"/>
<path d="M8.19922 8.75293H9.30273V17H8.19922V16.502C7.76628 16.9251 7.27637 17.1367 6.72949 17.1367C6.07845 17.1367 5.53809 16.8991 5.1084 16.4238C4.68197 15.9388 4.46875 15.3333 4.46875 14.6074C4.46875 13.8978 4.68197 13.3053 5.1084 12.8301C5.53158 12.3516 6.0638 12.1123 6.70508 12.1123C7.26172 12.1123 7.75977 12.3402 8.19922 12.7959V8.75293ZM5.5918 14.6074C5.5918 15.0632 5.71387 15.4342 5.95801 15.7207C6.20866 16.0104 6.52441 16.1553 6.90527 16.1553C7.31217 16.1553 7.64095 16.0153 7.8916 15.7354C8.14225 15.4456 8.26758 15.0778 8.26758 14.6318C8.26758 14.1859 8.14225 13.818 7.8916 13.5283C7.64095 13.2451 7.31543 13.1035 6.91504 13.1035C6.53743 13.1035 6.22168 13.2467 5.96777 13.5332C5.71712 13.8229 5.5918 14.181 5.5918 14.6074ZM15.1621 10.584L14.2393 11.1309C14.0667 10.8314 13.9023 10.6361 13.7461 10.5449C13.5833 10.4408 13.3734 10.3887 13.1162 10.3887C12.8005 10.3887 12.5384 10.4782 12.3301 10.6572C12.1217 10.833 12.0176 11.0544 12.0176 11.3213C12.0176 11.6891 12.291 11.9854 12.8379 12.21L13.5898 12.5176C14.2018 12.765 14.6494 13.0677 14.9326 13.4258C15.2158 13.7806 15.3574 14.2168 15.3574 14.7344C15.3574 15.4277 15.1263 16.0007 14.6641 16.4531C14.1986 16.9089 13.6208 17.1367 12.9307 17.1367C12.2764 17.1367 11.736 16.943 11.3096 16.5557C10.8896 16.1683 10.6276 15.623 10.5234 14.9199L11.6758 14.666C11.7279 15.1087 11.819 15.4147 11.9492 15.584C12.1836 15.9095 12.5254 16.0723 12.9746 16.0723C13.3294 16.0723 13.624 15.9535 13.8584 15.7158C14.0928 15.4782 14.21 15.1771 14.21 14.8125C14.21 14.666 14.1888 14.5326 14.1465 14.4121C14.1074 14.2884 14.0439 14.1761 13.9561 14.0752C13.8714 13.971 13.7607 13.875 13.624 13.7871C13.4873 13.696 13.3245 13.6097 13.1357 13.5283L12.4082 13.2256C11.3763 12.7894 10.8604 12.1514 10.8604 11.3115C10.8604 10.7451 11.0768 10.2715 11.5098 9.89062C11.9427 9.50651 12.4814 9.31445 13.126 9.31445C13.9951 9.31445 14.6738 9.73763 15.1621 10.584Z" fill="black"/>
</svg>
